<svg xmlns="http://www.w3.org/2000/svg" xmlns:xlink="http://www.w3.org/1999/xlink" version="1.1" x="0px" y="0px" viewBox="0 0 512 512" style="enable-background:new 0 0 512 512;" xml:space="preserve"><g><g><path d="M215.416,276.169c-1.84-0.486-5.312-0.733-10.315-0.733H183.94v29.266h21.372c7.091,0,12.169-1.316,15.095-3.912    c2.903-2.567,4.375-6.273,4.375-11.015c0-3.434-0.866-6.393-2.573-8.797C220.477,278.56,218.191,276.941,215.416,276.169z"/><path d="M294.357,277.152c-2.975-1.139-7.787-1.717-14.309-1.717h-17.275v63.652h17.592c5.475,0,9.83-0.517,12.946-1.537    c3.059-0.989,5.552-2.422,7.413-4.259c2.61-2.646,4.656-6.184,6.074-10.508c1.455-4.44,2.193-9.874,2.193-16.15    c0-8.67-1.438-15.447-4.271-20.146C301.872,281.836,298.385,278.694,294.357,277.152z"/><path d="M96.755,352.983v-91.502c0-22.014,17.91-39.924,39.924-39.924h267.464V118.49l-0.649-0.649    c-0.448,1.719-1.997,2.993-3.856,2.993h-91.366c-2.209,0-4-1.791-4-4V22.68c0-0.627,0.157-1.213,0.414-1.741H94.251    c-23.662,0-42.913,19.266-42.913,42.947v385.178c0,23.675,19.25,42.936,42.913,42.936h309.892v-99.091H136.68    C114.666,392.908,96.755,374.998,96.755,352.983z"/><polygon points="312.271,26.597 312.271,112.834 398.488,112.834   "/><path d="M429.674,229.558h-21.53H136.68c-17.603,0-31.924,14.321-31.924,31.924v91.502c0,17.604,14.321,31.925,31.924,31.925    h271.464h21.53c17.604,0,31.925-14.321,31.925-31.925v-91.502C461.599,243.879,447.277,229.558,429.674,229.558z M230.347,308.04    c-4.688,5.07-13.162,7.641-25.188,7.641H183.94v34.397h-12.2v-85.621h32.421c5.563,0,9.93,0.275,12.978,0.817    c4.213,0.707,7.789,2.062,10.623,4.026c2.852,1.968,5.19,4.781,6.95,8.36c1.74,3.528,2.622,7.485,2.622,11.762    C237.333,296.723,234.983,302.986,230.347,308.04z M319.269,324.025c-1.499,4.966-3.471,9.163-5.86,12.474    c-2.366,3.291-5.001,5.916-7.83,7.802c-2.79,1.872-6.244,3.326-10.266,4.319c-3.971,0.981-8.452,1.458-13.703,1.458h-31.047    v-85.621h29.674c6.639,0,11.74,0.415,15.167,1.234c5.005,1.163,9.137,3.184,12.63,6.176c4.507,3.806,7.925,8.737,10.156,14.655    c2.227,5.942,3.355,12.764,3.355,20.275C321.545,313.261,320.779,319.057,319.269,324.025z M394.614,275.436h-45.88v25.228h39.717    v10.979h-39.717v38.436h-12.2v-85.621h58.08V275.436z"/></g></g></svg>
